<?xml version="1.0" encoding="utf-8"?>
<!-- Generator: Adobe Illustrator 25.2.1, SVG Export Plug-In . SVG Version: 6.00 Build 0)  -->
<svg version="1.1" id="Layer_1" xmlns="http://www.w3.org/2000/svg" xmlns:xlink="http://www.w3.org/1999/xlink" x="0px" y="0px"
	 viewBox="0 0 170 49.04" style="enable-background:new 0 0 170 49.04;" xml:space="preserve">
<style type="text/css">
	.st0{fill:url(#SVGID_1_);}
	.st1{fill:url(#SVGID_2_);}
	.st2{fill:url(#SVGID_3_);}
	.st3{fill:url(#SVGID_4_);}
	.st4{fill:url(#SVGID_5_);}
	.st5{fill:url(#SVGID_6_);}
	.st6{fill:url(#SVGID_7_);}
	.st7{fill:url(#SVGID_8_);}
	.st8{fill:url(#SVGID_9_);}
	.st9{fill:url(#SVGID_10_);}
	.st10{fill:url(#SVGID_11_);}
</style>
<g>
	<linearGradient id="SVGID_1_" gradientUnits="userSpaceOnUse" x1="11.7048" y1="-0.0668" x2="11.7048" y2="53.9785">
		<stop  offset="7.585344e-03" style="stop-color:#33BDDB"/>
		<stop  offset="0.1844" style="stop-color:#34BAD9"/>
		<stop  offset="0.4159" style="stop-color:#36B0D6"/>
		<stop  offset="0.6776" style="stop-color:#3AA1D0"/>
		<stop  offset="0.9597" style="stop-color:#3F8BC8"/>
		<stop  offset="1" style="stop-color:#3F88C8"/>
	</linearGradient>
	<rect y="18.43" class="st0" width="23.41" height="5.18"/>
	<linearGradient id="SVGID_2_" gradientUnits="userSpaceOnUse" x1="143.5369" y1="-0.0668" x2="143.5369" y2="53.9785">
		<stop  offset="7.585344e-03" style="stop-color:#33BDDB"/>
		<stop  offset="0.1844" style="stop-color:#34BAD9"/>
		<stop  offset="0.4159" style="stop-color:#36B0D6"/>
		<stop  offset="0.6776" style="stop-color:#3AA1D0"/>
		<stop  offset="0.9597" style="stop-color:#3F8BC8"/>
		<stop  offset="1" style="stop-color:#3F88C8"/>
	</linearGradient>
	<polygon class="st1" points="128.49,0 136.4,5.18 158.58,5.18 158.58,0 	"/>
	<linearGradient id="SVGID_3_" gradientUnits="userSpaceOnUse" x1="143.5369" y1="-0.0668" x2="143.5369" y2="53.9785">
		<stop  offset="7.585344e-03" style="stop-color:#33BDDB"/>
		<stop  offset="0.1844" style="stop-color:#34BAD9"/>
		<stop  offset="0.4159" style="stop-color:#36B0D6"/>
		<stop  offset="0.6776" style="stop-color:#3AA1D0"/>
		<stop  offset="0.9597" style="stop-color:#3F8BC8"/>
		<stop  offset="1" style="stop-color:#3F88C8"/>
	</linearGradient>
	<polygon class="st2" points="128.49,18.43 136.4,23.6 158.58,23.6 158.58,18.43 	"/>
	<linearGradient id="SVGID_4_" gradientUnits="userSpaceOnUse" x1="131.0822" y1="-0.0668" x2="131.0822" y2="53.9785">
		<stop  offset="7.585344e-03" style="stop-color:#33BDDB"/>
		<stop  offset="0.1844" style="stop-color:#34BAD9"/>
		<stop  offset="0.4159" style="stop-color:#36B0D6"/>
		<stop  offset="0.6776" style="stop-color:#3AA1D0"/>
		<stop  offset="0.9597" style="stop-color:#3F8BC8"/>
		<stop  offset="1" style="stop-color:#3F88C8"/>
	</linearGradient>
	<polygon class="st3" points="128.49,18.43 128.49,48.96 133.67,48.96 133.67,26.33 	"/>
	<linearGradient id="SVGID_5_" gradientUnits="userSpaceOnUse" x1="20.4356" y1="-0.0668" x2="20.4356" y2="53.9785">
		<stop  offset="7.585344e-03" style="stop-color:#33BDDB"/>
		<stop  offset="0.1844" style="stop-color:#34BAD9"/>
		<stop  offset="0.4159" style="stop-color:#36B0D6"/>
		<stop  offset="0.6776" style="stop-color:#3AA1D0"/>
		<stop  offset="0.9597" style="stop-color:#3F8BC8"/>
		<stop  offset="1" style="stop-color:#3F88C8"/>
	</linearGradient>
	<polygon class="st4" points="0,43.86 7.9,49.04 40.87,49.04 40.87,43.86 	"/>
	<linearGradient id="SVGID_6_" gradientUnits="userSpaceOnUse" x1="53.484" y1="-0.0668" x2="53.484" y2="53.9785">
		<stop  offset="7.585344e-03" style="stop-color:#33BDDB"/>
		<stop  offset="0.1844" style="stop-color:#34BAD9"/>
		<stop  offset="0.4159" style="stop-color:#36B0D6"/>
		<stop  offset="0.6776" style="stop-color:#3AA1D0"/>
		<stop  offset="0.9597" style="stop-color:#3F8BC8"/>
		<stop  offset="1" style="stop-color:#3F88C8"/>
	</linearGradient>
	<path class="st5" d="M66.13,3.54C60.21,0.15,54.25,0,54.2,0H29.61v5.19l24,0c0.19,0,18.56,0.53,18.56,19.38
		c0,18.74-17.79,19.27-17.97,19.27h-7.13v5.19h7.19c0.23,0,23.1-1.05,23.1-24.46C77.36,12.49,71.25,6.46,66.13,3.54z"/>
	<linearGradient id="SVGID_7_" gradientUnits="userSpaceOnUse" x1="102.9127" y1="-0.0668" x2="102.9127" y2="53.9785">
		<stop  offset="7.585344e-03" style="stop-color:#33BDDB"/>
		<stop  offset="0.1844" style="stop-color:#34BAD9"/>
		<stop  offset="0.4159" style="stop-color:#36B0D6"/>
		<stop  offset="0.6776" style="stop-color:#3AA1D0"/>
		<stop  offset="0.9597" style="stop-color:#3F8BC8"/>
		<stop  offset="1" style="stop-color:#3F88C8"/>
	</linearGradient>
	<path class="st6" d="M117.09,0.01v27.48c0,2.95-0.56,5.68-1.67,8.12c-2.48,5.47-6.7,8.24-12.55,8.24c-5.84,0-10.05-2.77-12.5-8.23
		c-1.09-2.43-1.64-5.14-1.63-8.08l0.05-27.53h-5.19l-0.05,27.52c-0.01,3.68,0.7,7.11,2.09,10.21c2.31,5.15,7.18,11.3,17.24,11.3
		c10.05,0,14.94-6.14,17.28-11.29c1.41-3.12,2.13-6.57,2.13-10.26V0.01H117.09z"/>
	<g>
		<linearGradient id="SVGID_8_" gradientUnits="userSpaceOnUse" x1="167.4108" y1="-0.0668" x2="167.4108" y2="53.9785">
			<stop  offset="7.585344e-03" style="stop-color:#33BDDB"/>
			<stop  offset="0.1844" style="stop-color:#34BAD9"/>
			<stop  offset="0.4159" style="stop-color:#36B0D6"/>
			<stop  offset="0.6776" style="stop-color:#3AA1D0"/>
			<stop  offset="0.9597" style="stop-color:#3F8BC8"/>
			<stop  offset="1" style="stop-color:#3F88C8"/>
		</linearGradient>
		<rect x="164.82" y="10.35" class="st7" width="5.18" height="38.61"/>
		<linearGradient id="SVGID_9_" gradientUnits="userSpaceOnUse" x1="167.4066" y1="-0.0668" x2="167.4066" y2="53.9785">
			<stop  offset="7.585344e-03" style="stop-color:#33BDDB"/>
			<stop  offset="0.1844" style="stop-color:#34BAD9"/>
			<stop  offset="0.4159" style="stop-color:#36B0D6"/>
			<stop  offset="0.6776" style="stop-color:#3AA1D0"/>
			<stop  offset="0.9597" style="stop-color:#3F8BC8"/>
			<stop  offset="1" style="stop-color:#3F88C8"/>
		</linearGradient>
		<path class="st8" d="M167.41,5.18c1.43,0,2.59-1.16,2.59-2.59c0-1.43-1.16-2.58-2.59-2.58c-1.43,0-2.59,1.16-2.59,2.58
			C164.82,4.02,165.98,5.18,167.41,5.18z"/>
		<linearGradient id="SVGID_10_" gradientUnits="userSpaceOnUse" x1="167.4066" y1="-0.0668" x2="167.4066" y2="53.9785">
			<stop  offset="7.585344e-03" style="stop-color:#33BDDB"/>
			<stop  offset="0.1844" style="stop-color:#34BAD9"/>
			<stop  offset="0.4159" style="stop-color:#36B0D6"/>
			<stop  offset="0.6776" style="stop-color:#3AA1D0"/>
			<stop  offset="0.9597" style="stop-color:#3F8BC8"/>
			<stop  offset="1" style="stop-color:#3F88C8"/>
		</linearGradient>
		<path class="st9" d="M167.41,5.18c1.43,0,2.59-1.16,2.59-2.59c0-1.43-1.16-2.58-2.59-2.58c-1.43,0-2.59,1.16-2.59,2.58
			C164.82,4.02,165.98,5.18,167.41,5.18z"/>
	</g>
	<linearGradient id="SVGID_11_" gradientUnits="userSpaceOnUse" x1="11.7048" y1="-0.0668" x2="11.7048" y2="53.9785">
		<stop  offset="7.585344e-03" style="stop-color:#33BDDB"/>
		<stop  offset="0.1844" style="stop-color:#34BAD9"/>
		<stop  offset="0.4159" style="stop-color:#36B0D6"/>
		<stop  offset="0.6776" style="stop-color:#3AA1D0"/>
		<stop  offset="0.9597" style="stop-color:#3F8BC8"/>
		<stop  offset="1" style="stop-color:#3F88C8"/>
	</linearGradient>
	<polygon class="st10" points="0,0 7.9,5.18 23.41,5.18 23.41,0 	"/>
</g>
</svg>
